<svg xmlns="http://www.w3.org/2000/svg" viewBox="0 0 64 64">
  <!-- Deep space background with gradient -->
  <defs>
    <radialGradient id="spaceGradient" cx="50%" cy="50%" r="70%" fx="50%" fy="50%">
      <stop offset="0%" stop-color="#2a1b6a" />
      <stop offset="100%" stop-color="#0f0428" />
    </radialGradient>
  </defs>
  <rect width="64" height="64" rx="10" fill="url(#spaceGradient)"/>
  
  <!-- Stars and cosmic dust -->
  <circle cx="12" cy="10" r="0.8" fill="white" opacity="0.8"/>
  <circle cx="24" cy="8" r="0.6" fill="white" opacity="0.7"/>
  <circle cx="42" cy="15" r="1" fill="white" opacity="0.9"/>
  <circle cx="55" cy="22" r="0.7" fill="white" opacity="0.8"/>
  <circle cx="8" cy="38" r="0.9" fill="white" opacity="0.7"/>
  <circle cx="18" cy="52" r="0.8" fill="white" opacity="0.6"/>
  <circle cx="48" cy="46" r="0.7" fill="white" opacity="0.8"/>
  <circle cx="36" cy="56" r="0.9" fill="white" opacity="0.7"/>
  <circle cx="52" cy="10" r="0.5" fill="white" opacity="0.6"/>
  <circle cx="6" cy="22" r="0.6" fill="white" opacity="0.7"/>
  <circle cx="30" cy="8" r="0.7" fill="white" opacity="0.6"/>
  <circle cx="58" cy="40" r="0.6" fill="white" opacity="0.7"/>
  
  <!-- Cosmic dust/nebula effect -->
  <ellipse cx="20" cy="20" rx="15" ry="8" fill="#7b5ee6" opacity="0.1" />
  <ellipse cx="45" cy="48" rx="12" ry="10" fill="#9163f4" opacity="0.1" />
  
  <!-- Main planet (localhost) - stylized with gradient -->
  <defs>
    <linearGradient id="planetGradient" x1="0%" y1="0%" x2="100%" y2="100%">
      <stop offset="0%" stop-color="#a68ffb" />
      <stop offset="100%" stop-color="#7347e3" />
    </linearGradient>
  </defs>
  <circle cx="32" cy="32" r="16" fill="url(#planetGradient)"/>
  
  <!-- Planet surface details - subtle code pattern -->
  <path d="M20 32 C24 26, 40 26, 44 32" stroke="#c1b3ff" stroke-width="0.6" fill="none" opacity="0.5"/>
  <path d="M20 36 C24 30, 40 30, 44 36" stroke="#c1b3ff" stroke-width="0.6" fill="none" opacity="0.5"/>
  <path d="M20 40 C24 34, 40 34, 44 40" stroke="#c1b3ff" stroke-width="0.6" fill="none" opacity="0.5"/>
  
  <!-- Orbital rings representing 'beyond' -->
  <ellipse cx="32" cy="32" rx="24" ry="12" stroke="#a78bfa" stroke-width="0.8" fill="none" opacity="0.7" transform="rotate(15, 32, 32)"/>
  <ellipse cx="32" cy="32" rx="28" ry="14" stroke="#8a5cf6" stroke-width="0.8" fill="none" opacity="0.5" transform="rotate(-10, 32, 32)"/>
  
  <!-- Constellation of code symbols - simplified -->
  <path d="M18 20 L14 24 L18 28" stroke="#ffffff" stroke-width="1.2" fill="none" stroke-linecap="round" stroke-linejoin="round" opacity="0.8"/>
  <path d="M46 20 L50 24 L46 28" stroke="#ffffff" stroke-width="1.2" fill="none" stroke-linecap="round" stroke-linejoin="round" opacity="0.8"/>
  
  <!-- Small satellite/spaceship -->
  <circle cx="54" cy="24" r="2.2" fill="#a78bfa" opacity="0.9"/>
  <path d="M52 24 L56 24" stroke="#ffffff" stroke-width="0.6" opacity="0.8"/>
  <path d="M54 22 L54 26" stroke="#ffffff" stroke-width="0.6" opacity="0.8"/>
</svg>